<?xml version="1.0" encoding="UTF-8"?>
<svg xmlns="http://www.w3.org/2000/svg" viewBox="0 0 1920 1920">
  <defs>
    <style>
      .cls-1 {
        fill: #fff;
      }
    </style>
  </defs>
  <g id="Layer_1" data-name="Layer 1">
    <g>
      <path d="M23.55,1851.81c7.34-18.51,11.5-36.38,16.31-55.68l13.38-53.51,58.14-224.4,44.76-168.21c8.89-33.41,13.52-82.66,45.2-76.73,27.95,5.24,7.74,65.19,5.82,85.33-3.33,35.51-2.86,70.62-1.01,106.45,2.46,48.16,18.4,93,47.77,130.75,25.35,32.54,75.79,32.4,116.28,31.67,83.27-1.45,125.4-80.34,142.43-152.15l43.57-184.01s50.73-193.84,50.73-193.84c31.44,20.27,62.89,40.54,94.33,60.81,14.1,9.09,28.65,17.47,42.99,26.18,7.36,4.47,14.69,9.02,21.86,13.79,20.32,13.53,45.09,25.27,37.67,53.97l-74.23,286.59c-7.27,27.95-17.68,52.54-20.36,83.53,35,2.1,69.53.54,105.33-.04,13.67-.22,19.42,14.17,18.08,24.66-.94,7.34-8.14,20.5-19.6,20.57l-327.34,2.21c-25.42.14-116.97,24.7-113.93,70.26,2.06,30.84,24.52,54.78,48.09,72.79,39.59,30.26,87.83,48.49,137.44,53.62,30.37,3.11,57.38,1.12,87,.61,73.91-1.23,144.81-10.38,211.42-43.32,30.63-15.15,52.61-38.76,76.62-63.82,55.83-58.29,92.17-133.79,100.45-215.39,3.65-36.01,2.35-71.77,0-107.64-2.75-42.34-20.72-80.09-43.03-115.34-57.35-90.58-165.82-170.34-256.9-225.84-42.38-25.85-83.31-49.93-123.41-78.97,0,0-21.08-15.26-21.08-15.26-17.88-14.42-35.75-28.83-53.63-43.25-12.13-9.78-24.06-19.89-36.42-29.38-10.4-7.98-17.41-19.32-27.02-28.11-11.07-10.13-21.64-17.62-31.94-29.11-37.5-41.87-68.74-88.48-83.81-143.73-11.75-42.99-16.42-127.82-13.96-174.28,6.54-123.23,66.42-234.23,170.02-301.96,97.73-63.93,171.1-83.81,286.55-107.9,3.43,8.46,3.4,19.78-1.45,29.61-4.01,8.14-12.84,13.09-24.04,16.6-72.82,22.71-141.45,55.32-196.77,108.76-99.54,96.18-103.23,247.14-15.08,359.12,37.6,47.77,107.64,109.09,159.24,142.43l118.49,76.62c38.15,24.66,77.23,44.04,113.61,70.94,75.54,55.94,106.49,83.85,165.24,156.71,47.8,59.26,84.03,126.37,97.84,201.55,9.87,53.59-.04,147.27-8.1,202.67-7.7,52.86-29.61,113.68-54.02,161.01l-13.6,26.32c-8.53,16.52-51.53,67.36-68.09,81.28-108.22,90.79-260.56,136.61-401.43,142.03-125.98,4.85-223.49-18.48-325.46-91.66-27.12-19.49-52.25-38.07-77.63-60.2-24.52-21.37-50.59-41.18-82.66-49.1-9.36-2.31-23.36.76-34.13,2.1-57.17,7.12-84.72,134.11-77.78,180.39l-48.74-49.1Z"/>
      <path d="M1742.22,732.67c-74.59,62.92-160.9,107.39-255.24,134.94-83.71,24.48-164.99,44.94-251.37,48.52l-56.84,2.39c-35.83,1.48-69.5,2.1-104.9-4.45-22.89-4.23-63.86-4.85-74.34-34.02,86.78-.76,178.37-36.85,224.33-112.81,23.76-39.34,32.87-114.26,36.56-161.34,7.01-89.6-15.48-201.69-78.17-267.39l-47.84-50.15c-8.03-8.39,7.05-37.5,10.92-46.86,1.88-.11,4.12.4,5.6,1.52l67.83,52.1,34.82,29.65c16.85,14.32,29.04,30.52,44.55,46.21,8.5,8.57,26.69-7.09,29-16.56,4.81-19.6,13.45-33.88,21.62-51.16,11.97-25.38,48.52-117.73,73.44-113.65,40.46,6.65,10.59,69.32,6.73,80.92-51.56,154.72-94.95,309.98-133.61,468.39-4.63,19.02-13.27,61.72,4.12,70.44,54.67,27.34,150.67-13.85,195.47-50.19,55.18-44.69,113.1-152.05,131.87-221.79,5.17-19.27,12.37-37.03,15.04-57.35l11.72-89.53c5.06-38.58,1.19-77.52.98-116.97-.29-52.61-24.8-119.03-68.41-150.96-11.75-8.61-22.38-17.68-36.88-24.3-47.58-21.69-98.03-29.51-150.27-36.23-16.81-2.17-31.93-6.8-49.18-6.11-33.08,1.27-65.05-3.47-98.39-3.51l-110.1-.22-54.09,193.63-17.18,62.63-75.68,277.3s-70.29,254.73-70.29,254.74c-2.77,10.57-54.96-27.95-59.91-31.58-25.64-18.79-52.23-36.22-78.86-53.55-11.93-7.77-23.67-16.21-36.15-23.01-5.32-2.9-38.25-14.81-38.59-20.7-1.16-20.1,8.73-38.99,14.51-57.7,22.54-72.88,39.06-147.85,59.47-221.37,0,0,38.07-137.94,38.07-137.94l52.65-190.37c4.45-16.05,10.96-30.01,10.45-49.03l-140.26.69c-6.11.04-10.63-.8-14.75-4.27-3.87-3.29-3.04-9.62-4.09-16.38-2.82-18.19,8.53-32,27.01-32.54L845.32.11,1050.52,0l312.7,4.05c36.05.47,69.68-.72,104.97,4.45,151.03,21.95,374.82,90.76,416.36,260.66,5.71,23.25,9.76,47.91,10.38,72.82l1.41,56.33c3.18,127.35-57.64,252.89-154.11,334.36Z"/>
    </g>
  </g>
</svg>